<svg width="40" height="41" viewBox="0 0 40 41" fill="none" xmlns="http://www.w3.org/2000/svg">
<path fill-rule="evenodd" clip-rule="evenodd" d="M11.7545 0.62C13.8873 0.521818 14.5673 0.5 20 0.5C25.4327 0.5 26.1127 0.523636 28.2436 0.62C30.3745 0.716364 31.8291 1.05636 33.1018 1.54909C34.4345 2.05273 35.6436 2.84 36.6436 3.85818C37.6618 4.85636 38.4473 6.06364 38.9491 7.39818C39.4436 8.67091 39.7818 10.1255 39.88 12.2527C39.9782 14.3891 40 15.0691 40 20.5C40 25.9327 39.9764 26.6127 39.88 28.7455C39.7836 30.8727 39.4436 32.3273 38.9491 33.6C38.4473 34.9347 37.6605 36.144 36.6436 37.1436C35.6436 38.1618 34.4345 38.9473 33.1018 39.4491C31.8291 39.9436 30.3745 40.2818 28.2473 40.38C26.1127 40.4782 25.4327 40.5 20 40.5C14.5673 40.5 13.8873 40.4764 11.7545 40.38C9.62727 40.2836 8.17273 39.9436 6.9 39.4491C5.56531 38.9472 4.35604 38.1605 3.35636 37.1436C2.33887 36.1449 1.55148 34.9362 1.04909 33.6018C0.556364 32.3291 0.218182 30.8745 0.12 28.7473C0.0218182 26.6109 0 25.9309 0 20.5C0 15.0673 0.0236363 14.3873 0.12 12.2564C0.216364 10.1255 0.556364 8.67091 1.04909 7.39818C1.55222 6.06378 2.34022 4.85511 3.35818 3.85636C4.35644 2.83909 5.5645 2.05172 6.89818 1.54909C8.17091 1.05636 9.62545 0.718182 11.7527 0.62H11.7545ZM28.0818 4.22C25.9727 4.12364 25.34 4.10364 20 4.10364C14.66 4.10364 14.0273 4.12364 11.9182 4.22C9.96727 4.30909 8.90909 4.63455 8.20364 4.90909C7.27091 5.27273 6.60364 5.70364 5.90364 6.40364C5.24008 7.04919 4.72942 7.83506 4.40909 8.70364C4.13455 9.40909 3.80909 10.4673 3.72 12.4182C3.62364 14.5273 3.60364 15.16 3.60364 20.5C3.60364 25.84 3.62364 26.4727 3.72 28.5818C3.80909 30.5327 4.13455 31.5909 4.40909 32.2964C4.72909 33.1636 5.24 33.9509 5.90364 34.5964C6.54909 35.26 7.33636 35.7709 8.20364 36.0909C8.90909 36.3655 9.96727 36.6909 11.9182 36.78C14.0273 36.8764 14.6582 36.8964 20 36.8964C25.3418 36.8964 25.9727 36.8764 28.0818 36.78C30.0327 36.6909 31.0909 36.3655 31.7964 36.0909C32.7291 35.7273 33.3964 35.2964 34.0964 34.5964C34.76 33.9509 35.2709 33.1636 35.5909 32.2964C35.8655 31.5909 36.1909 30.5327 36.28 28.5818C36.3764 26.4727 36.3964 25.84 36.3964 20.5C36.3964 15.16 36.3764 14.5273 36.28 12.4182C36.1909 10.4673 35.8655 9.40909 35.5909 8.70364C35.2273 7.77091 34.7964 7.10364 34.0964 6.40364C33.4508 5.74013 32.6649 5.22947 31.7964 4.90909C31.0909 4.63455 30.0327 4.30909 28.0818 4.22ZM17.4455 26.6655C18.8721 27.2593 20.4607 27.3395 21.9399 26.8922C23.4191 26.445 24.6971 25.498 25.5557 24.2132C26.4142 22.9283 26.8001 21.3852 26.6474 19.8475C26.4946 18.3097 25.8127 16.8727 24.7182 15.7818C24.0204 15.0845 23.1768 14.5506 22.2479 14.2184C21.319 13.8863 20.3281 13.7643 19.3464 13.8611C18.3647 13.9579 17.4166 14.2712 16.5706 14.7784C15.7245 15.2856 15.0014 15.9741 14.4533 16.7943C13.9052 17.6145 13.5458 18.546 13.4009 19.5217C13.2561 20.4975 13.3294 21.4933 13.6155 22.4373C13.9017 23.3813 14.3936 24.2502 15.0559 24.9813C15.7181 25.7124 16.5342 26.2876 17.4455 26.6655ZM12.7309 13.2309C13.6855 12.2763 14.8188 11.5191 16.066 11.0025C17.3132 10.4859 18.65 10.22 20 10.22C21.35 10.22 22.6868 10.4859 23.934 11.0025C25.1812 11.5191 26.3145 12.2763 27.2691 13.2309C28.2237 14.1855 28.9809 15.3188 29.4975 16.566C30.0141 17.8132 30.28 19.15 30.28 20.5C30.28 21.85 30.0141 23.1868 29.4975 24.434C28.9809 25.6812 28.2237 26.8145 27.2691 27.7691C25.3412 29.697 22.7264 30.78 20 30.78C17.2736 30.78 14.6588 29.697 12.7309 27.7691C10.803 25.8412 9.71995 23.2264 9.71995 20.5C9.71995 17.7736 10.803 15.1588 12.7309 13.2309ZM32.56 11.7509C32.7966 11.5278 32.9859 11.2594 33.1169 10.9618C33.2479 10.6641 33.3178 10.3432 33.3226 10.0181C33.3273 9.69289 33.2668 9.37009 33.1445 9.06875C33.0223 8.7674 32.8408 8.49366 32.6108 8.26371C32.3809 8.03376 32.1071 7.85229 31.8058 7.73003C31.5045 7.60778 31.1817 7.54723 30.8565 7.55197C30.5313 7.55671 30.2104 7.62664 29.9128 7.75763C29.6151 7.88862 29.3468 8.07799 29.1236 8.31455C28.6897 8.7746 28.4521 9.38568 28.4613 10.0181C28.4705 10.6504 28.7258 11.2543 29.173 11.7015C29.6202 12.1487 30.2241 12.4041 30.8565 12.4133C31.4889 12.4225 32.0999 12.1849 32.56 11.7509Z" fill="#181515"/>
</svg>
