<svg width="40" height="41" viewBox="0 0 40 41" fill="none" xmlns="http://www.w3.org/2000/svg">
<path fill-rule="evenodd" clip-rule="evenodd" d="M40 20.5C40 31.545 31.045 40.5 20 40.5C8.955 40.5 0 31.545 0 20.5C0 9.455 8.955 0.5 20 0.5C31.045 0.5 40 9.455 40 20.5ZM20.7167 15.265C18.7717 16.0733 14.8833 17.7483 9.05333 20.2883C8.10667 20.665 7.61 21.0333 7.565 21.3933C7.48833 22.0033 8.25167 22.2433 9.28833 22.5683C9.43 22.6133 9.57667 22.6583 9.72667 22.7083C10.7483 23.04 12.1217 23.4283 12.835 23.4433C13.4833 23.4567 14.2067 23.19 15.005 22.6433C20.4517 18.965 23.2633 17.1067 23.44 17.0667C23.565 17.0383 23.7383 17.0017 23.855 17.1067C23.9717 17.21 23.96 17.4067 23.9483 17.46C23.8717 17.7817 20.8817 20.5633 19.3317 22.0033C18.8483 22.4517 18.5067 22.77 18.4367 22.8433C18.28 23.005 18.12 23.16 17.9667 23.3083C17.0167 24.2217 16.3067 24.9083 18.0067 26.0283C18.8233 26.5667 19.4767 27.0117 20.1283 27.455C20.84 27.94 21.55 28.4233 22.47 29.0267C22.7033 29.18 22.9267 29.3383 23.145 29.4933C23.9733 30.085 24.7183 30.615 25.6383 30.5317C26.1717 30.4817 26.725 29.98 27.005 28.4817C27.6667 24.9383 28.97 17.265 29.2717 14.1017C29.29 13.839 29.2788 13.5751 29.2383 13.315C29.2141 13.1049 29.1118 12.9116 28.9517 12.7733C28.7133 12.5783 28.3433 12.5367 28.1767 12.54C27.425 12.5533 26.2717 12.955 20.7167 15.265Z" fill="#181515"/>
</svg>
