<svg width="40" height="41" viewBox="0 0 40 41" fill="none" xmlns="http://www.w3.org/2000/svg">
<path d="M28.9924 24.1323C28.5058 23.8743 26.0815 22.6488 25.6306 22.483C25.1796 22.3079 24.8493 22.225 24.5233 22.741C24.193 23.2523 23.2554 24.3903 22.9607 24.7358C22.675 25.0767 22.3848 25.1182 21.8982 24.8648C19.0051 23.3721 17.1076 22.2019 15.2013 18.825C14.6968 17.9266 15.7058 17.9911 16.6478 16.0515C16.8085 15.7106 16.7282 15.4203 16.6031 15.1623C16.4781 14.9043 15.4959 12.4073 15.0852 11.3892C14.6878 10.3986 14.2771 10.5369 13.978 10.5184C13.6922 10.5 13.3663 10.5 13.0359 10.5C12.7055 10.5 12.1743 10.629 11.7233 11.1312C11.2724 11.6426 10 12.8726 10 15.3697C10 17.8667 11.7635 20.2854 12.0046 20.6263C12.2546 20.9672 15.4736 26.0903 20.4159 28.2971C23.5411 29.6884 24.7644 29.8082 26.327 29.5686C27.278 29.4212 29.238 28.3431 29.6442 27.1499C30.0505 25.9613 30.0505 24.9431 29.93 24.7312C29.8094 24.5055 29.479 24.3765 28.9924 24.1323Z" fill="#181515"/>
<path d="M38.4462 12.75C37.4373 10.3527 35.9909 8.20089 34.1471 6.35268C32.3034 4.50893 30.1517 3.05804 27.7499 2.05357C25.2946 1.02232 22.6875 0.5 20 0.5H19.9107C17.2054 0.513393 14.5849 1.04911 12.1206 2.10268C9.7412 3.12054 7.6073 4.56696 5.78143 6.41071C3.95556 8.25446 2.52254 10.3973 1.53148 12.7857C0.504711 15.2589 -0.0131394 17.8884 0.000253268 20.5938C0.013646 23.692 0.754708 26.7679 2.14308 29.5179V36.3036C2.14308 37.4375 3.06272 38.3571 4.19663 38.3571H10.9867C13.7367 39.7455 16.8125 40.4866 19.9107 40.5H20.0045C22.6785 40.5 25.2723 39.9821 27.7142 38.9688C30.1026 37.9732 32.2499 36.5446 34.0891 34.7188C35.9328 32.8929 37.3837 30.7589 38.3971 28.3795C39.4507 25.9152 39.9864 23.2946 39.9998 20.5893C40.0131 17.8705 39.4864 15.2321 38.4462 12.75ZM31.7007 32.3036C28.5713 35.4018 24.4196 37.1071 20 37.1071H19.9241C17.2322 37.0938 14.5581 36.4241 12.1965 35.1652L11.8215 34.9643H5.5359V28.6786L5.33501 28.3036C4.0761 25.942 3.40646 23.2679 3.39307 20.5759C3.37521 16.125 5.07608 11.9464 8.19658 8.79911C11.3126 5.65179 15.4777 3.91071 19.9286 3.89286H20.0045C22.2366 3.89286 24.4017 4.32589 26.4419 5.18304C28.4329 6.01786 30.2186 7.21875 31.7543 8.75446C33.2856 10.2857 34.4909 12.0759 35.3257 14.067C36.1918 16.1295 36.6248 18.317 36.6159 20.5759C36.5891 25.0223 34.8436 29.1875 31.7007 32.3036Z" fill="#181515"/>
</svg>
